<?xml version="1.0" encoding="UTF-8" standalone="no"?>
<!DOCTYPE svg PUBLIC "-//W3C//DTD SVG 1.1//EN"
 "http://www.w3.org/Graphics/SVG/1.1/DTD/svg11.dtd">
<!-- Generated by graphviz version 2.43.0 (0)
 -->
<!-- Title: tree Pages: 1 -->
<svg width="281pt" height="332pt"
 viewBox="0.00 0.00 280.59 332.00" xmlns="http://www.w3.org/2000/svg" xmlns:xlink="http://www.w3.org/1999/xlink">
<g id="graph0" class="graph" transform="scale(1 1) rotate(0) translate(4 328)">
<title>tree</title>
<polygon fill="white" stroke="transparent" points="-4,4 -4,-328 276.59,-328 276.59,4 -4,4"/>
<!-- Never -->
<g id="node1" class="node">
<title>Never</title>
<ellipse fill="green" stroke="black" cx="83.3" cy="-306" rx="38.99" ry="18"/>
<text text-anchor="middle" x="83.3" y="-302.3" font-family="Times,serif" font-size="14.00">Never</text>
</g>
<!-- Gonna -->
<g id="node2" class="node">
<title>Gonna</title>
<ellipse fill="lightgrey" stroke="black" cx="40.3" cy="-234" rx="40.09" ry="18"/>
<text text-anchor="middle" x="40.3" y="-230.3" font-family="Times,serif" font-size="14.00">Gonna</text>
</g>
<!-- Never&#45;&gt;Gonna -->
<g id="edge1" class="edge">
<title>Never&#45;&gt;Gonna</title>
<path fill="none" stroke="black" d="M73.11,-288.41C67.91,-279.95 61.49,-269.49 55.7,-260.08"/>
<polygon fill="black" stroke="black" points="58.63,-258.16 50.41,-251.47 52.67,-261.82 58.63,-258.16"/>
</g>
<!-- You -->
<g id="node3" class="node">
<title>You</title>
<ellipse fill="lightgrey" stroke="black" cx="126.3" cy="-234" rx="27.1" ry="18"/>
<text text-anchor="middle" x="126.3" y="-230.3" font-family="Times,serif" font-size="14.00">You</text>
</g>
<!-- Never&#45;&gt;You -->
<g id="edge2" class="edge">
<title>Never&#45;&gt;You</title>
<path fill="none" stroke="black" d="M93.49,-288.41C98.76,-279.83 105.29,-269.19 111.14,-259.67"/>
<polygon fill="black" stroke="black" points="114.22,-261.34 116.48,-250.99 108.26,-257.68 114.22,-261.34"/>
</g>
<!-- Give -->
<g id="node4" class="node">
<title>Give</title>
<ellipse fill="lightgrey" stroke="black" cx="40.3" cy="-162" rx="31.7" ry="18"/>
<text text-anchor="middle" x="40.3" y="-158.3" font-family="Times,serif" font-size="14.00">Give</text>
</g>
<!-- Gonna&#45;&gt;Give -->
<g id="edge3" class="edge">
<title>Gonna&#45;&gt;Give</title>
<path fill="none" stroke="black" d="M40.3,-215.7C40.3,-207.98 40.3,-198.71 40.3,-190.11"/>
<polygon fill="black" stroke="black" points="43.8,-190.1 40.3,-180.1 36.8,-190.1 43.8,-190.1"/>
</g>
<!-- Up -->
<g id="node5" class="node">
<title>Up</title>
<ellipse fill="lightgrey" stroke="black" cx="121.3" cy="-162" rx="27" ry="18"/>
<text text-anchor="middle" x="121.3" y="-158.3" font-family="Times,serif" font-size="14.00">Up</text>
</g>
<!-- You&#45;&gt;Up -->
<g id="edge4" class="edge">
<title>You&#45;&gt;Up</title>
<path fill="none" stroke="black" d="M125.06,-215.7C124.51,-207.98 123.85,-198.71 123.23,-190.11"/>
<polygon fill="black" stroke="black" points="126.72,-189.83 122.52,-180.1 119.74,-190.33 126.72,-189.83"/>
</g>
<!-- never -->
<g id="node6" class="node">
<title>never</title>
<ellipse fill="lightgrey" stroke="black" cx="203.3" cy="-162" rx="37.09" ry="18"/>
<text text-anchor="middle" x="203.3" y="-158.3" font-family="Times,serif" font-size="14.00">never</text>
</g>
<!-- You&#45;&gt;never -->
<g id="edge5" class="edge">
<title>You&#45;&gt;never</title>
<path fill="none" stroke="black" d="M141.88,-218.83C152.55,-209.13 166.91,-196.08 179.07,-185.03"/>
<polygon fill="black" stroke="black" points="181.63,-187.43 186.67,-178.11 176.92,-182.25 181.63,-187.43"/>
</g>
<!-- gonna -->
<g id="node7" class="node">
<title>gonna</title>
<ellipse fill="lightgrey" stroke="black" cx="161.3" cy="-90" rx="38.99" ry="18"/>
<text text-anchor="middle" x="161.3" y="-86.3" font-family="Times,serif" font-size="14.00">gonna</text>
</g>
<!-- never&#45;&gt;gonna -->
<g id="edge6" class="edge">
<title>never&#45;&gt;gonna</title>
<path fill="none" stroke="black" d="M193.34,-144.41C188.27,-135.95 181.99,-125.49 176.34,-116.08"/>
<polygon fill="black" stroke="black" points="179.32,-114.24 171.18,-107.47 173.32,-117.85 179.32,-114.24"/>
</g>
<!-- you -->
<g id="node8" class="node">
<title>you</title>
<ellipse fill="lightgrey" stroke="black" cx="245.3" cy="-90" rx="27.1" ry="18"/>
<text text-anchor="middle" x="245.3" y="-86.3" font-family="Times,serif" font-size="14.00">you</text>
</g>
<!-- never&#45;&gt;you -->
<g id="edge7" class="edge">
<title>never&#45;&gt;you</title>
<path fill="none" stroke="black" d="M213.25,-144.41C218.4,-135.83 224.78,-125.19 230.49,-115.67"/>
<polygon fill="black" stroke="black" points="233.56,-117.36 235.7,-106.99 227.56,-113.76 233.56,-117.36"/>
</g>
<!-- down -->
<g id="node9" class="node">
<title>down</title>
<ellipse fill="lightgrey" stroke="black" cx="121.3" cy="-18" rx="36" ry="18"/>
<text text-anchor="middle" x="121.3" y="-14.3" font-family="Times,serif" font-size="14.00">down</text>
</g>
<!-- gonna&#45;&gt;down -->
<g id="edge8" class="edge">
<title>gonna&#45;&gt;down</title>
<path fill="none" stroke="black" d="M151.82,-72.41C147.03,-64.04 141.13,-53.71 135.79,-44.37"/>
<polygon fill="black" stroke="black" points="138.71,-42.42 130.71,-35.47 132.63,-45.89 138.71,-42.42"/>
</g>
<!-- let -->
<g id="node10" class="node">
<title>let</title>
<ellipse fill="lightgrey" stroke="black" cx="202.3" cy="-18" rx="27" ry="18"/>
<text text-anchor="middle" x="202.3" y="-14.3" font-family="Times,serif" font-size="14.00">let</text>
</g>
<!-- gonna&#45;&gt;let -->
<g id="edge9" class="edge">
<title>gonna&#45;&gt;let</title>
<path fill="none" stroke="black" d="M171.01,-72.41C176.04,-63.83 182.27,-53.19 187.85,-43.67"/>
<polygon fill="black" stroke="black" points="190.9,-45.39 192.93,-34.99 184.86,-41.85 190.9,-45.39"/>
</g>
</g>
</svg>
